# xmcd
#
# Track frame offsets: 
#        150
#        19403
#        31077
#        49857
#        62117
#        79253
#        95748
#        120101
#        132026
#        146041
#        163428
#        183601
#        204721
#        216005
#        230327
#        244398
#        256017
#        279673
#        292434
#        308260
#        320436
#
# Disc length: 4459 seconds
#
# Revision: 0
# Processed by: cddbd v1.5.2PL0 Copyright (c) Steve Scherf et al.
# Submitted via: ExactAudioCopy v0.95b4
#
DISCID=3d116915
DTITLE=Сергей Данилов и Александр Гейнц - Концерт в Ленинградском зооп
DTITLE=арке. Полная версия 1996
DYEAR=2006
DGENRE=Бард
TTITLE0=Песенка о полярной авиации
TTITLE1=В Авачинской бухте
TTITLE2=Баллада Дебинского прижима
TTITLE3=Голубой ледопад
TTITLE4=Костер
TTITLE5="А может жизнь проходит зря..."
TTITLE6=Нагадали мне...
TTITLE7=Посвящение фее
TTITLE8=Океан
TTITLE9=Возвращение к зимнему лесу
TTITLE10=Мой друг
TTITLE11=Светлая печаль
TTITLE12=Прощальный вальс
TTITLE13=Баллада о чайке
TTITLE14=Далекий порт
TTITLE15=Не провожайте нас
TTITLE16=Крокусы
TTITLE17=Ода плацкартному купе
TTITLE18=Нет, сегодня не наша последняя встреча
TTITLE19=Осенний вальс
TTITLE20=Вечер большого дня
EXTD=
EXTT0=
EXTT1=
EXTT2=
EXTT3=
EXTT4=
EXTT5=
EXTT6=
EXTT7=
EXTT8=
EXTT9=
EXTT10=
EXTT11=
EXTT12=
EXTT13=
EXTT14=
EXTT15=
EXTT16=
EXTT17=
EXTT18=
EXTT19=
EXTT20=
PLAYORDER=
